<mxfile host="app.diagrams.net" modified="2023-12-26T09:59:27.174Z" agent="Mozilla/5.0 (Windows NT 10.0; Win64; x64) AppleWebKit/537.36 (KHTML, like Gecko) Chrome/120.0.0.0 Safari/537.36 Edg/120.0.0.0" version="22.1.11" etag="Kmibg257cSI8MVpwYZxG" type="github">
  <diagram name="Page-1" id="1_d0mKu64GQEvSiwkHhN">
    <mxGraphModel>
      <root>
        <mxCell id="0" />
        <mxCell id="1" parent="0" />
      </root>
    </mxGraphModel>
  </diagram>
</mxfile>
